<?xml version="1.0" encoding="UTF-8"?>
<svg version="1.1" viewBox="0 0 1956 2040" width="489" height="510" xmlns="http://www.w3.org/2000/svg">
<path transform="translate(704,374)" d="m0 0h52l28 2 23 3 37 7 23 6 36 11 17 7 18 8 27 13 20 11 14 9 21 14 9 7 12 9 14 12 10 9 8 7 22 22 7 8 18 21 10 13 13 18 13 20 8 14 10 18 12 24 10 25 6 16 8 26 4 14 7 37 4 22 2 19 1 24v38l-2 36-4 25-9 43-6 20-8 26-8 19-9 21-8 16-6 11-11 20-7 11-10 14-8 11-7 9-8 11-8 9-7 8-5 5v2l14 7 12 7 21 9 11 5 39 13 44 10 12 2 27 2h50l25-2 31-6 33-8 39-14 16-8 14-6 13-8 6-3 17-11 10-7 12-9 22-18 23-23 7-8 10-11 15-20 11-16 15-25 10-19 10-24 7-19 9-30 5-25 5-37 1-10v-48l-4-33-5-32-6-21-8-26-11-27-4-10-4-8 30-1h61l21 1 12 36 6 23 7 29 3 21 4 44v58l-4 43-4 24-11 44-15 43-9 20-9 19-10 19-10 17-10 15-9 13-7 10-18 22-12 14-11 11-7 8-24 22-22 18-6 4-9 7-16 11-9 6-12 7-14 8-21 11-12 5-12 6-40 14-40 11-21 4-52 7-27 2h-29l-33-3-55-8-19-5-23-7-21-7-19-7-24-11-9-4-25-13-18-11-11-8-7-5-5 1-11 8-8 5-20 12-27 14-12 5-15 7-30 11-30 9-25 6-50 8-18 2-17 1h-28l-24-1-25-3-51-8-42-12-17-6-14-5-19-8-10-5-17-8-22-12-18-11-15-11-9-6-6-5-10-7-9-8-8-7-10-9-13-12-25-25-9-11-13-16-8-11-7-10-13-20-8-14-10-19-8-15-12-28-13-37-11-42-4-23-5-46-1-17v-35l3-35 5-40 9-36 7-25 8-22 2-5 8-1h101l3 1-2 5-7 14-10 25-12 37-5 25-5 32-2 16-1 16v25l3 31 7 43 5 19 9 29 14 33 14 27 14 22 7 10 6 8 14 18 14 15 20 20 8 7 18 14 16 12 22 14 16 9 16 8 23 11 18 6 16 6 44 10 18 3 23 2h55l25-2 31-6 21-5 15-4 33-12 21-10 9-4 16-9 8-4 8-6 15-9 7-6 13-10 13-11 16-15 10-10 7-8 9-11 6-7 6-8 7-10 13-19 4-8 7-11 6-13 8-16 8-21 5-13 7-26 6-24 4-36 1-13v-49l-4-42-4-20-12-42-10-26-11-23-10-19-11-18-12-17-16-20-12-14-4-4-4 2-8 8-18 22-13 18-7 11-12 20-11 22-6 13-10 26-12 41-4 24-4 37-1 19v14l3 39 4 31 4 17 10 35 12 30 8 16 11 21 6 10 10 16 12 16 1 6-16 16-8 7-9 8-16 12-12 8-10 6-3 2h-5l-8-9-13-19-7-11-6-9-11-19-16-32-13-31-13-39-12-52-4-28-2-35v-39l2-34 3-22 6-28 9-37 11-33 15-35 12-25 9-15 6-11 6-8 9-14 8-11 16-20 9-11 7-8 4-5-32-16-23-11-15-5-13-5-13-4-23-5-31-6-39-3h-38l-26 2-24 4-43 10-28 10-16 7-18 8h-3l-1-11v-93l2-6 10-5 18-6 28-8 56-11 23-3z" fill="#72BCF7"/>
<path transform="translate(310,213)" d="m0 0h36l17 3 11 4 16 8 11 7 10 8 14 14 13 19 11 24 3 14 1 9 1 20v248l-5 1h-237l-26-1-21-5-17-6-8-4-15-10-10-9-5-5-12-13-5-9-6-9-9-27-4-20v-18l3-17 10-30 11-18 3-4h2l2-4h2l2-4 6-7 9-7 8-6 15-9 11-4 24-6 5-1 14-1 4-32 3-10 12-25 7-8 6-9 13-13 9-6 10-7 17-8 7-3 14-3z" fill="#0D69AA"/>
<path transform="translate(1688,213)" d="m0 0h36l17 3 13 5 21 11 10 8 8 7 11 11 12 18 6 13 8 22 2 12 1 15 18 2 21 5 14 5 10 6 14 9 15 14 9 11 11 18 5 11 6 19v55l-9 26-6 10-7 11-8 9-7 8-8 7-9 6-11 7-14 6-21 6-11 2-28 1h-229l-8-1v-269l3-18 5-14 11-21 6-7 6-8 14-14 6-4 10-7 23-11 11-3z" fill="#0D69AA"/>
<path transform="translate(1281,374)" d="m0 0h37l21 1 31 4 48 9 29 8 25 8 9 4 1 3v107l-6-1-22-10-30-11-12-4-42-10-22-3-29-2h-42l-26 2-23 4-39 9-25 9-19 7-10 5-4-2-9-9-7-8-13-13-8-7-15-13-14-11-9-7-2-3 13-7 10-6 31-14 16-6 15-6 30-9 19-5 44-8 29-4z" fill="#72BCF7"/>
<path transform="translate(373,1498)" d="m0 0h18l5 3 4 8 8 19 10 26 7 16 6 16 8 19 5 13 2 1-1-15v-91l2-8 5-6 2-1h22l4 4 2 5v222l-5 6-4 2h-16l-7-6-8-16-10-25-11-28-10-24-7-17-3-5-1 114-5 5-4 2-10 1-9-2-8-6-1-2-1-10v-157l1-54 6-7z" fill="#0E6AAB"/>
<path transform="translate(703,1498)" d="m0 0h19l5 5 13 28 6 17 7 16 6 16 7 16 7 19 2 4 2 1-1-11v-44l1-58 3-6 4-3h21l5 4 3 5 1 212-1 10-7 7-3 1h-15l-6-4-4-7-9-19-8-21-8-20-9-21-8-21-3-9h-3l1 4v106l-2 7-5 4-3 1h-17l-6-4-4-5-1-7v-39l1-175 7-8z" fill="#0E6AAA"/>
<path transform="translate(1331,1498)" d="m0 0h22l4 2 3 8v92l37-1 1-93 4-6 5-2h20l5 3 3 4v225l-6 5-5 2h-15l-6-3-4-3-1-3v-92h-38v91l-2 5-5 4-3 1h-16l-9-6-2-4v-220l6-8z" fill="#0D69AA"/>
<path transform="translate(1519,1498)" d="m0 0h22l3 3 7 21 6 27 7 30 4 16 7 33 6 24 6 29 7 28 2 11v9l-5 6-5 2-9 1-10-2-7-6-3-10-5-25-5-21v-2l-34 1-8 34-4 21-5 6-6 3h-16l-8-4-3-3v-11l5-22 8-32 6-28 8-33 6-27 6-24 6-28 6-19zm10 91-6 33-2 9v5h18l-1-9-7-38z" fill="#0E6AAB"/>
<path transform="translate(1227,1498)" d="m0 0h30l11 4 10 6 10 9 7 14 4 13 3 20v7l-3 8-4 5-4 2h-18l-5-3-3-7-2-21-4-10-5-7-4-2h-15l-6 2-2 5-4 9-2 15v101l2 15 4 9 8 7 4 1h8l8-4 5-6 3-9 1-6 1-17 3-6 9-3h13l7 4 4 6 1 10-2 18-5 17-6 12-13 13-16 6-10 2h-17l-16-4-10-5-9-9-7-11-4-10-3-15-1-21v-84l1-24 5-23 5-10 11-12 12-8z" fill="#0E6AAB"/>
<path transform="translate(516,1498)" d="m0 0h87l5 2 3 7v19l-4 6-4 2-6 1h-52v65h44l6 3 2 5v19l-7 8-12 1h-33v93l-5 5-6 3h-15l-6-3-5-5-1-4v-216l3-6z" fill="#0E69AA"/>
<path transform="translate(1041,1498)" d="m0 0h23l5 5 10 19 8 20 8 17 2 7 4-4 7-17 11-24 5-13 6-8 3-2h23l5 2 2 3v15l-5 12-8 18-7 16-7 15-6 16-7 14-4 11-1 52v33l-1 24-8 7-3 1h-16l-6-3-3-6-1-107-8-16-10-24-7-16-8-18-11-25-3-8v-8l6-7z" fill="#0E6AAB"/>
<path transform="translate(1624,1497)" d="m0 0h52l21 1 3 3 2 6 1 12-3 10-4 5-5 1h-30v192l-3 6-8 4h-13l-7-3-6-7v-192h-30l-5-3-5-6-1-3v-15l3-6 5-4z" fill="#0E6AAB"/>
<path transform="translate(969,1497)" d="m0 0h15l25 1 5 4 2 5 1 12-2 8-5 6-5 2h-30v190l-2 5-6 5-5 2h-12l-7-3-4-4-1-5v-189l-32-1-4-2-5-10v-16l4-8 2-1z" fill="#106BAC"/>
<path transform="translate(847,1498)" d="m0 0h21l4 2 3 9v218l-2 5-5 4-4 1h-15l-5-3-6-6-1-15v-125l1-81 7-8z" fill="#116CAD"/>
<path transform="translate(644,1498)" d="m0 0h20l6 5 3 7v216l-3 6-8 5h-17l-6-3-3-4-1-38v-145l1-42 3-5z" fill="#0F6BAC"/>
<path transform="translate(312,1498)" d="m0 0h21l6 5 2 4 1 8v209l-2 7-8 6-10 1-10-2-5-5-2-6v-217l4-8z" fill="#0F6BAC"/>
</svg>
